<svg width="89" height="30" viewBox="0 0 89 30" fill="none" xmlns="http://www.w3.org/2000/svg">
<path d="M2 13C0.895431 13 9.65645e-08 13.8954 0 15C-9.65645e-08 16.1046 0.89543 17 2 17L2 13ZM88.4142 16.4142C89.1953 15.6332 89.1953 14.3668 88.4142 13.5858L75.6863 0.857871C74.9052 0.076822 73.6389 0.0768219 72.8579 0.857871C72.0768 1.63892 72.0768 2.90525 72.8579 3.6863L84.1716 15L72.8579 26.3137C72.0768 27.0948 72.0768 28.3611 72.8579 29.1421C73.6389 29.9232 74.9052 29.9232 75.6863 29.1421L88.4142 16.4142ZM2 17L87 17L87 13L2 13L2 17Z" fill="#000A8F"/>
</svg>
