<svg width="64" height="64" viewBox="0 0 64 64" fill="none" xmlns="http://www.w3.org/2000/svg">
<path d="M14 0C14.5304 0 15.0391 0.210714 15.4142 0.585786C15.7893 0.960859 16 1.46957 16 2V4H48V2C48 1.46957 48.2107 0.960859 48.5858 0.585786C48.9609 0.210714 49.4696 0 50 0C50.5304 0 51.0391 0.210714 51.4142 0.585786C51.7893 0.960859 52 1.46957 52 2V4H56C58.1217 4 60.1566 4.84285 61.6569 6.34315C63.1571 7.84344 64 9.87827 64 12V56C64 58.1217 63.1571 60.1566 61.6569 61.6569C60.1566 63.1571 58.1217 64 56 64H8C5.87827 64 3.84344 63.1571 2.34315 61.6569C0.842855 60.1566 0 58.1217 0 56V12C0 9.87827 0.842855 7.84344 2.34315 6.34315C3.84344 4.84285 5.87827 4 8 4H12V2C12 1.46957 12.2107 0.960859 12.5858 0.585786C12.9609 0.210714 13.4696 0 14 0V0ZM4 16V56C4 57.0609 4.42143 58.0783 5.17157 58.8284C5.92172 59.5786 6.93913 60 8 60H56C57.0609 60 58.0783 59.5786 58.8284 58.8284C59.5786 58.0783 60 57.0609 60 56V16H4Z" fill="#000A8F"/>
<path d="M24.4157 47C24.2157 47 24.0557 46.94 23.9357 46.82C23.8157 46.68 23.7557 46.51 23.7557 46.31V29.39L18.7157 33.26C18.5757 33.38 18.4257 33.44 18.2657 33.44C18.0857 33.44 17.9157 33.34 17.7557 33.14L17.0357 32.21C16.9357 32.07 16.8857 31.93 16.8857 31.79C16.8857 31.57 16.9857 31.39 17.1857 31.25L23.6957 26.21C23.9157 26.07 24.1757 26 24.4757 26H25.8857C26.0857 26 26.2457 26.07 26.3657 26.21C26.5057 26.33 26.5757 26.49 26.5757 26.69V46.31C26.5757 46.51 26.5057 46.68 26.3657 46.82C26.2457 46.94 26.0857 47 25.8857 47H24.4157ZM38.3599 47.3C35.7799 47.3 33.8899 46.55 32.6899 45.05C31.5099 43.53 30.8799 41.55 30.7999 39.11L30.7699 36.53L30.7999 33.86C30.8599 31.44 31.4899 29.48 32.6899 27.98C33.9099 26.46 35.7999 25.7 38.3599 25.7C40.9399 25.7 42.8299 26.46 44.0299 27.98C45.2499 29.48 45.8899 31.44 45.9499 33.86C45.9699 34.42 45.9799 35.31 45.9799 36.53C45.9799 37.71 45.9699 38.57 45.9499 39.11C45.8699 41.55 45.2299 43.53 44.0299 45.05C42.8499 46.55 40.9599 47.3 38.3599 47.3ZM38.3599 44.81C39.8999 44.81 41.0599 44.3 41.8399 43.28C42.6199 42.26 43.0299 40.82 43.0699 38.96C43.0899 38.38 43.0999 37.55 43.0999 36.47C43.0999 35.37 43.0899 34.55 43.0699 34.01C43.0299 32.17 42.6099 30.74 41.8099 29.72C41.0299 28.68 39.8799 28.16 38.3599 28.16C36.8399 28.16 35.6899 28.68 34.9099 29.72C34.1299 30.74 33.7199 32.17 33.6799 34.01L33.6499 36.47L33.6799 38.96C33.7199 40.82 34.1299 42.26 34.9099 43.28C35.6899 44.3 36.8399 44.81 38.3599 44.81Z" fill="#000A8F"/>
</svg>
