<svg width="64" height="64" viewBox="0 0 64 64" fill="none" xmlns="http://www.w3.org/2000/svg">
<path d="M7.68 2.02367C7.99304 1.97268 8.31371 1.99686 8.61556 2.09423C8.91741 2.1916 9.19177 2.35936 9.416 2.58367L12 5.17167L14.584 2.58367C14.7698 2.39742 14.9905 2.24964 15.2335 2.14882C15.4764 2.04799 15.7369 1.99609 16 1.99609C16.2631 1.99609 16.5236 2.04799 16.7665 2.14882C17.0095 2.24964 17.2302 2.39742 17.416 2.58367L20 5.17167L22.584 2.58367C22.7698 2.39742 22.9905 2.24964 23.2335 2.14882C23.4764 2.04799 23.7369 1.99609 24 1.99609C24.2631 1.99609 24.5236 2.04799 24.7665 2.14882C25.0095 2.24964 25.2302 2.39742 25.416 2.58367L28 5.17167L30.584 2.58367C30.7698 2.39742 30.9905 2.24964 31.2335 2.14882C31.4764 2.04799 31.7369 1.99609 32 1.99609C32.2631 1.99609 32.5236 2.04799 32.7665 2.14882C33.0095 2.24964 33.2302 2.39742 33.416 2.58367L36 5.17167L38.584 2.58367C38.7698 2.39742 38.9905 2.24964 39.2335 2.14882C39.4764 2.04799 39.7369 1.99609 40 1.99609C40.2631 1.99609 40.5236 2.04799 40.7665 2.14882C41.0095 2.24964 41.2302 2.39742 41.416 2.58367L44 5.17167L46.584 2.58367C46.7698 2.39742 46.9905 2.24964 47.2335 2.14882C47.4764 2.04799 47.7369 1.99609 48 1.99609C48.2631 1.99609 48.5236 2.04799 48.7665 2.14882C49.0095 2.24964 49.2302 2.39742 49.416 2.58367L52 5.17167L54.584 2.58367C54.8081 2.3594 55.0823 2.19162 55.384 2.09416C55.6857 1.99671 56.0062 1.97237 56.3192 2.02316C56.6321 2.07395 56.9285 2.19841 57.1839 2.38628C57.4393 2.57415 57.6463 2.82004 57.788 3.10367L59.788 7.10367C59.9274 7.38178 60 7.68858 60 7.99967V55.9997C60 56.3108 59.9274 56.6176 59.788 56.8957L57.788 60.8957C57.6462 61.1786 57.4392 61.4238 57.1842 61.6112C56.9291 61.7985 56.6333 61.9227 56.3209 61.9734C56.0085 62.0242 55.6886 62.0001 55.3873 61.9031C55.0861 61.8062 54.8121 61.6391 54.588 61.4157L52 58.8277L49.416 61.4157C49.2302 61.6019 49.0095 61.7497 48.7665 61.8505C48.5236 61.9513 48.2631 62.0032 48 62.0032C47.7369 62.0032 47.4764 61.9513 47.2335 61.8505C46.9905 61.7497 46.7698 61.6019 46.584 61.4157L44 58.8277L41.416 61.4157C41.2302 61.6019 41.0095 61.7497 40.7665 61.8505C40.5236 61.9513 40.2631 62.0032 40 62.0032C39.7369 62.0032 39.4764 61.9513 39.2335 61.8505C38.9905 61.7497 38.7698 61.6019 38.584 61.4157L36 58.8277L33.416 61.4157C33.2302 61.6019 33.0095 61.7497 32.7665 61.8505C32.5236 61.9513 32.2631 62.0032 32 62.0032C31.7369 62.0032 31.4764 61.9513 31.2335 61.8505C30.9905 61.7497 30.7698 61.6019 30.584 61.4157L28 58.8277L25.416 61.4157C25.2302 61.6019 25.0095 61.7497 24.7665 61.8505C24.5236 61.9513 24.2631 62.0032 24 62.0032C23.7369 62.0032 23.4764 61.9513 23.2335 61.8505C22.9905 61.7497 22.7698 61.6019 22.584 61.4157L20 58.8277L17.416 61.4157C17.2302 61.6019 17.0095 61.7497 16.7665 61.8505C16.5236 61.9513 16.2631 62.0032 16 62.0032C15.7369 62.0032 15.4764 61.9513 15.2335 61.8505C14.9905 61.7497 14.7698 61.6019 14.584 61.4157L12 58.8277L9.416 61.4157C9.19191 61.6399 8.9177 61.8077 8.61601 61.9052C8.31432 62.0026 7.99378 62.027 7.68083 61.9762C7.36789 61.9254 7.0715 61.8009 6.81611 61.6131C6.56073 61.4252 6.35366 61.1793 6.212 60.8957L4.212 56.8957C4.07261 56.6176 4.00002 56.3108 4 55.9997V7.99967C4.00002 7.68858 4.07261 7.38178 4.212 7.10367L6.212 3.10367C6.35365 2.82023 6.56061 2.57451 6.81583 2.38674C7.07106 2.19897 7.36725 2.07453 7.68 2.02367ZM8.548 7.37567L8 8.47167V55.5277L8.548 56.6237L10.588 54.5837C10.9631 54.2087 11.4717 53.9981 12.002 53.9981C12.5323 53.9981 13.0409 54.2087 13.416 54.5837L16 57.1717L18.584 54.5877C18.7698 54.4014 18.9905 54.2536 19.2335 54.1528C19.4764 54.052 19.7369 54.0001 20 54.0001C20.2631 54.0001 20.5236 54.052 20.7665 54.1528C21.0095 54.2536 21.2302 54.4014 21.416 54.5877L24 57.1717L26.584 54.5877C26.7698 54.4014 26.9905 54.2536 27.2335 54.1528C27.4764 54.052 27.7369 54.0001 28 54.0001C28.2631 54.0001 28.5236 54.052 28.7665 54.1528C29.0095 54.2536 29.2302 54.4014 29.416 54.5877L32 57.1717L34.584 54.5877C34.7698 54.4014 34.9905 54.2536 35.2335 54.1528C35.4764 54.052 35.7369 54.0001 36 54.0001C36.2631 54.0001 36.5236 54.052 36.7665 54.1528C37.0095 54.2536 37.2302 54.4014 37.416 54.5877L40 57.1717L42.584 54.5877C42.7698 54.4014 42.9905 54.2536 43.2335 54.1528C43.4764 54.052 43.7369 54.0001 44 54.0001C44.2631 54.0001 44.5236 54.052 44.7665 54.1528C45.0095 54.2536 45.2302 54.4014 45.416 54.5877L48 57.1717L50.584 54.5877C50.7698 54.4014 50.9905 54.2536 51.2335 54.1528C51.4764 54.052 51.7369 54.0001 52 54.0001C52.2631 54.0001 52.5236 54.052 52.7665 54.1528C53.0095 54.2536 53.2302 54.4014 53.416 54.5877L55.452 56.6237L56 55.5277V8.47167L55.452 7.37567L53.412 9.41567C53.0369 9.79061 52.5283 10.0012 51.998 10.0012C51.4677 10.0012 50.9591 9.79061 50.584 9.41567L48 6.82767L45.416 9.41567C45.2302 9.60192 45.0095 9.74969 44.7665 9.85052C44.5236 9.95134 44.2631 10.0032 44 10.0032C43.7369 10.0032 43.4764 9.95134 43.2335 9.85052C42.9905 9.74969 42.7698 9.60192 42.584 9.41567L40 6.82767L37.416 9.41567C37.2302 9.60192 37.0095 9.74969 36.7665 9.85052C36.5236 9.95134 36.2631 10.0032 36 10.0032C35.7369 10.0032 35.4764 9.95134 35.2335 9.85052C34.9905 9.74969 34.7698 9.60192 34.584 9.41567L32 6.82767L29.416 9.41567C29.2302 9.60192 29.0095 9.74969 28.7665 9.85052C28.5236 9.95134 28.2631 10.0032 28 10.0032C27.7369 10.0032 27.4764 9.95134 27.2335 9.85052C26.9905 9.74969 26.7698 9.60192 26.584 9.41567L24 6.82767L21.416 9.41567C21.2302 9.60192 21.0095 9.74969 20.7665 9.85052C20.5236 9.95134 20.2631 10.0032 20 10.0032C19.7369 10.0032 19.4764 9.95134 19.2335 9.85052C18.9905 9.74969 18.7698 9.60192 18.584 9.41567L16 6.82767L13.416 9.41567C13.2302 9.60192 13.0095 9.74969 12.7665 9.85052C12.5236 9.95134 12.2631 10.0032 12 10.0032C11.7369 10.0032 11.4764 9.95134 11.2335 9.85052C10.9905 9.74969 10.7698 9.60192 10.584 9.41567L8.548 7.37567Z" fill="#000A8F"/>
<path d="M12 18C12 17.4696 12.2107 16.9609 12.5858 16.5858C12.9609 16.2107 13.4696 16 14 16H38C38.5304 16 39.0391 16.2107 39.4142 16.5858C39.7893 16.9609 40 17.4696 40 18C40 18.5304 39.7893 19.0391 39.4142 19.4142C39.0391 19.7893 38.5304 20 38 20H14C13.4696 20 12.9609 19.7893 12.5858 19.4142C12.2107 19.0391 12 18.5304 12 18ZM12 26C12 25.4696 12.2107 24.9609 12.5858 24.5858C12.9609 24.2107 13.4696 24 14 24H38C38.5304 24 39.0391 24.2107 39.4142 24.5858C39.7893 24.9609 40 25.4696 40 26C40 26.5304 39.7893 27.0391 39.4142 27.4142C39.0391 27.7893 38.5304 28 38 28H14C13.4696 28 12.9609 27.7893 12.5858 27.4142C12.2107 27.0391 12 26.5304 12 26ZM12 34C12 33.4696 12.2107 32.9609 12.5858 32.5858C12.9609 32.2107 13.4696 32 14 32H38C38.5304 32 39.0391 32.2107 39.4142 32.5858C39.7893 32.9609 40 33.4696 40 34C40 34.5304 39.7893 35.0391 39.4142 35.4142C39.0391 35.7893 38.5304 36 38 36H14C13.4696 36 12.9609 35.7893 12.5858 35.4142C12.2107 35.0391 12 34.5304 12 34ZM12 42C12 41.4696 12.2107 40.9609 12.5858 40.5858C12.9609 40.2107 13.4696 40 14 40H38C38.5304 40 39.0391 40.2107 39.4142 40.5858C39.7893 40.9609 40 41.4696 40 42C40 42.5304 39.7893 43.0391 39.4142 43.4142C39.0391 43.7893 38.5304 44 38 44H14C13.4696 44 12.9609 43.7893 12.5858 43.4142C12.2107 43.0391 12 42.5304 12 42ZM44 18C44 17.4696 44.2107 16.9609 44.5858 16.5858C44.9609 16.2107 45.4696 16 46 16H50C50.5304 16 51.0391 16.2107 51.4142 16.5858C51.7893 16.9609 52 17.4696 52 18C52 18.5304 51.7893 19.0391 51.4142 19.4142C51.0391 19.7893 50.5304 20 50 20H46C45.4696 20 44.9609 19.7893 44.5858 19.4142C44.2107 19.0391 44 18.5304 44 18ZM44 26C44 25.4696 44.2107 24.9609 44.5858 24.5858C44.9609 24.2107 45.4696 24 46 24H50C50.5304 24 51.0391 24.2107 51.4142 24.5858C51.7893 24.9609 52 25.4696 52 26C52 26.5304 51.7893 27.0391 51.4142 27.4142C51.0391 27.7893 50.5304 28 50 28H46C45.4696 28 44.9609 27.7893 44.5858 27.4142C44.2107 27.0391 44 26.5304 44 26ZM44 34C44 33.4696 44.2107 32.9609 44.5858 32.5858C44.9609 32.2107 45.4696 32 46 32H50C50.5304 32 51.0391 32.2107 51.4142 32.5858C51.7893 32.9609 52 33.4696 52 34C52 34.5304 51.7893 35.0391 51.4142 35.4142C51.0391 35.7893 50.5304 36 50 36H46C45.4696 36 44.9609 35.7893 44.5858 35.4142C44.2107 35.0391 44 34.5304 44 34ZM44 42C44 41.4696 44.2107 40.9609 44.5858 40.5858C44.9609 40.2107 45.4696 40 46 40H50C50.5304 40 51.0391 40.2107 51.4142 40.5858C51.7893 40.9609 52 41.4696 52 42C52 42.5304 51.7893 43.0391 51.4142 43.4142C51.0391 43.7893 50.5304 44 50 44H46C45.4696 44 44.9609 43.7893 44.5858 43.4142C44.2107 43.0391 44 42.5304 44 42Z" fill="#000A8F"/>
</svg>
