<svg width="32" height="32" viewBox="0 0 32 32" fill="none" xmlns="http://www.w3.org/2000/svg">
<path fill-rule="evenodd" clip-rule="evenodd" d="M32 30.2332C32 31.2085 31.2094 32 30.234 32H22.0795V19.6078H26.2391L26.8624 14.7788H22.0795V11.6949C22.0795 10.2968 22.4683 9.34408 24.4731 9.34408L27.0306 9.34321V5.02332C26.5878 4.96492 25.0702 4.8333 23.3042 4.8333C19.617 4.8333 17.0926 7.0839 17.0926 11.2173V14.7788H12.9226V19.6078H17.0926V32H1.76601C0.790608 32 0 31.2085 0 30.2332V1.76683C0 0.790586 0.790608 0 1.76601 0H30.234C31.2094 0 32 0.790586 32 1.76683V30.2332Z" fill="white"/>
</svg>
