<svg width="360" height="269" viewBox="0 0 360 269" fill="none" xmlns="http://www.w3.org/2000/svg">
<path d="M360 65.6634V214.12C360 220.177 357.592 225.987 353.305 230.27C349.019 234.553 343.205 236.959 337.143 236.959H311.429V268.364L260 236.959H162.857C156.795 236.959 150.981 234.553 146.695 230.27C142.408 225.987 140 220.177 140 214.12V194.135L220 42.824H337.143C343.205 42.824 349.019 45.2303 353.305 49.5135C357.592 53.7967 360 59.606 360 65.6634Z" fill="#FFD540"/>
<path d="M231.429 42.824V171.296C231.429 180.382 227.816 189.096 221.387 195.521C214.957 201.946 206.236 205.555 197.143 205.555H140V194.135L220 42.824H231.429Z" fill="#B0B0B0"/>
<path d="M220 22.8395V171.296C220 177.353 217.592 183.163 213.305 187.446C209.019 191.729 203.205 194.135 197.143 194.135H100L48.5714 225.54V194.135H22.8571C16.7951 194.135 10.9812 191.729 6.6947 187.446C2.40816 183.163 0 177.353 0 171.296V22.8395C0 16.7821 2.40816 10.9728 6.6947 6.68952C10.9812 2.40629 16.7951 0 22.8571 0H197.143C203.205 0 209.019 2.40629 213.305 6.68952C217.592 10.9728 220 16.7821 220 22.8395Z" fill="#2596FF"/>
<path d="M220 159.876V171.296C220 177.353 217.592 183.163 213.305 187.446C209.019 191.729 203.205 194.135 197.143 194.135H100L48.5714 225.54V194.135H22.8571C16.7951 194.135 10.9812 191.729 6.6947 187.446C2.40816 183.163 0 177.353 0 171.296V159.876C0 165.934 2.40816 171.743 6.6947 176.026C10.9812 180.309 16.7951 182.716 22.8571 182.716H197.143C203.205 182.716 209.019 180.309 213.305 176.026C217.592 171.743 220 165.934 220 159.876Z" fill="#2596FF"/>
<path d="M140 202.7V214.12C140 220.177 142.408 225.987 146.695 230.27C150.981 234.553 156.795 236.959 162.857 236.959H260L311.429 268.364V236.959H337.143C343.205 236.959 349.019 234.553 353.305 230.27C357.592 225.987 360 220.177 360 214.12V202.7C360 208.758 357.592 214.567 353.305 218.85C349.019 223.133 343.205 225.54 337.143 225.54H162.857C156.795 225.54 150.981 223.133 146.695 218.85C142.408 214.567 140 208.758 140 202.7Z" fill="#FFD540"/>
<path d="M49.7712 75.0503V91.7687H73.8398V97.6613H49.7712V117.052H42.9141V69.0892H76.7883V75.0503H49.7712Z" fill="white"/>
<path d="M114.814 105.061H89.3053L84.0253 117.052H76.9625L98.6996 69.0892H105.488L127.294 117.052H120.094L114.814 105.061ZM112.414 99.5798L102.06 76.078L91.7053 99.5798H112.414Z" fill="white"/>
<path d="M183.225 121.437C181.67 123.264 179.865 124.658 177.807 125.617C175.75 126.576 173.533 127.056 171.156 127.056C168.139 127.056 165.305 126.325 162.653 124.863C160.047 123.447 157.053 121.003 153.67 117.532C149.145 117.303 145.053 116.093 141.396 113.9C137.785 111.708 134.95 108.807 132.893 105.198C130.882 101.544 129.876 97.5014 129.876 93.0706C129.876 88.457 130.973 84.2774 133.167 80.5317C135.407 76.7861 138.47 73.8626 142.356 71.7614C146.242 69.6145 150.607 68.541 155.453 68.541C160.253 68.541 164.596 69.6145 168.482 71.7614C172.367 73.8626 175.407 76.7861 177.602 80.5317C179.796 84.2317 180.893 88.4113 180.893 93.0706C180.893 96.999 180.093 100.608 178.493 103.896C176.939 107.185 174.722 109.949 171.842 112.187C169.007 114.425 165.739 115.979 162.036 116.846C163.636 118.537 165.167 119.747 166.63 120.478C168.139 121.254 169.67 121.643 171.225 121.643C174.607 121.643 177.533 120.272 180.002 117.532L183.225 121.437ZM136.733 93.0706C136.733 96.5422 137.533 99.694 139.133 102.526C140.779 105.313 143.019 107.505 145.853 109.104C148.733 110.703 151.933 111.502 155.453 111.502C158.927 111.502 162.082 110.703 164.916 109.104C167.75 107.505 169.967 105.313 171.567 102.526C173.213 99.694 174.036 96.5422 174.036 93.0706C174.036 89.599 173.213 86.47 171.567 83.6836C169.967 80.8515 167.75 78.6361 164.916 77.0373C162.082 75.4385 158.927 74.6391 155.453 74.6391C151.933 74.6391 148.733 75.4385 145.853 77.0373C143.019 78.6361 140.779 80.8515 139.133 83.6836C137.533 86.47 136.733 89.599 136.733 93.0706Z" fill="white"/>
<path d="M266.331 110.623C267.337 109.71 268.434 108.857 269.622 108.065C270.811 107.274 272.091 106.573 273.462 105.964C274.864 105.355 276.373 104.883 277.988 104.548C279.634 104.183 281.402 104 283.291 104C285.821 104 288.137 104.365 290.24 105.096C292.373 105.797 294.202 106.817 295.725 108.157C297.28 109.466 298.483 111.065 299.337 112.953C300.19 114.811 300.617 116.897 300.617 119.211C300.617 121.525 300.282 123.535 299.611 125.241C298.941 126.916 298.087 128.377 297.051 129.626C296.015 130.874 294.887 131.971 293.668 132.915C292.449 133.828 291.291 134.696 290.194 135.518C289.127 136.31 288.198 137.117 287.405 137.939C286.643 138.731 286.186 139.614 286.034 140.589L285.074 147.441H278.4L277.714 139.904C277.562 138.472 277.79 137.239 278.4 136.204C279.009 135.168 279.817 134.194 280.822 133.28C281.859 132.367 282.986 131.499 284.205 130.676C285.455 129.824 286.613 128.88 287.68 127.844C288.746 126.809 289.645 125.652 290.377 124.373C291.108 123.094 291.474 121.556 291.474 119.759C291.474 118.572 291.245 117.506 290.788 116.562C290.331 115.587 289.691 114.765 288.868 114.095C288.045 113.425 287.085 112.907 285.988 112.542C284.891 112.177 283.702 111.994 282.422 111.994C280.624 111.994 279.101 112.207 277.851 112.633C276.602 113.06 275.535 113.532 274.651 114.049C273.767 114.537 273.036 114.993 272.457 115.42C271.878 115.816 271.39 116.014 270.994 116.014C270.049 116.014 269.348 115.602 268.891 114.78L266.331 110.623ZM275.108 164.844C275.108 163.961 275.261 163.139 275.565 162.378C275.901 161.586 276.342 160.901 276.891 160.322C277.47 159.744 278.141 159.287 278.902 158.952C279.695 158.617 280.533 158.449 281.417 158.449C282.301 158.449 283.123 158.617 283.885 158.952C284.678 159.287 285.363 159.744 285.942 160.322C286.522 160.901 286.979 161.586 287.314 162.378C287.649 163.139 287.817 163.961 287.817 164.844C287.817 165.758 287.649 166.595 287.314 167.357C286.979 168.118 286.522 168.788 285.942 169.367C285.363 169.945 284.678 170.387 283.885 170.691C283.123 171.026 282.301 171.194 281.417 171.194C280.533 171.194 279.695 171.026 278.902 170.691C278.141 170.387 277.47 169.945 276.891 169.367C276.342 168.788 275.901 168.118 275.565 167.357C275.261 166.595 275.108 165.758 275.108 164.844Z" fill="white"/>
</svg>
