<svg width="410" height="317" viewBox="0 0 410 317" fill="none" xmlns="http://www.w3.org/2000/svg">
<path d="M63.4234 155.895C63.3951 157.17 63.2288 158.578 62.273 159.518C61.4371 160.514 60.322 161.231 59.4798 162.218C59.115 162.839 59.3905 163.761 60.0755 164.026C60.3455 164.207 60.6408 164.399 60.7693 164.712C61.0158 166.141 61.141 167.7 62.0971 168.866C63.2317 169.484 63.4528 170.895 63.5042 172.065C63.6732 173.087 63.3209 174.243 62.4045 174.802C61.7331 175.527 62.2786 176.522 62.6789 177.235C62.9511 178.186 63.8631 178.619 64.7325 178.89C65.6228 179.225 66.2307 180.092 67.0938 180.395C68.113 180.615 69.3372 181.077 69.6358 182.189C69.7666 183.32 69.2138 184.441 69.5279 185.566C69.5514 185.89 69.5712 186.214 69.5602 186.538C69.3464 188.064 70.921 188.933 71.3515 190.246C71.8407 192.172 70.3348 193.785 69.9782 195.587C69.5918 197.269 69.4452 199.005 68.9585 200.662C68.7477 202.205 67.4541 203.316 67.1717 204.838C66.6508 205.999 65.8468 207.013 65.4604 208.24C65.2158 209.438 63.3643 209.241 63.4179 210.452C63.7617 211.715 64.9429 210.762 65.7723 210.994C66.653 211.144 67.5716 211.672 68.4616 211.277C69.4926 210.432 68.3723 208.966 69.1455 208.027C69.562 207.292 69.9947 206.159 69.1804 205.532C68.0844 204.938 69.2719 203.834 70.1284 203.889C71.3658 203.701 72.2205 204.728 73.2537 205.173C73.8377 205.434 74.1947 204.777 74.5043 204.411C74.9017 204.354 74.9344 204.858 74.9502 205.138C75.005 205.421 75.1985 205.752 75.5181 205.762C75.8405 205.711 76.0797 205.336 76.4323 205.458C77.0614 205.628 77.4115 206.218 77.8706 206.628C78.1773 206.897 78.4807 207.307 78.3528 207.737C78.1824 208.161 77.7479 208.422 77.6168 208.869C77.3946 209.46 77.5378 210.098 77.5639 210.707C77.7002 210.973 78.0263 211.045 78.3007 211.052C78.4939 211.063 78.7102 211.172 78.7455 211.379C78.8197 211.582 78.665 211.744 78.5695 211.892C78.5358 212.068 78.693 212.214 78.8505 212.254C79.0481 212.364 79.1572 212.571 79.3104 212.728C79.4988 212.864 79.7739 212.845 79.923 213.042C80.0813 213.204 80.1761 213.413 80.2859 213.608C80.6495 214.113 80.7884 214.771 80.6459 215.377C80.6407 215.809 80.7935 216.269 81.1432 216.542C81.4987 216.684 81.7896 216.32 81.9108 216.029C82.0846 215.663 82.104 215.22 82.3755 214.905C82.7049 214.663 83.0517 214.994 83.2709 215.225C83.7491 215.582 84.4165 215.541 84.862 215.956C85.0707 216.12 85.2224 216.341 85.3814 216.549C85.6594 216.826 86.022 216.613 86.3287 216.549C86.6508 216.553 86.9589 216.67 87.2822 216.678C88.0766 216.661 88.4788 217.036 88.8163 217.476C89.2354 217.353 89.6824 217.517 90.0185 217.77C90.3399 217.767 90.6293 218.091 90.5658 218.412C90.5562 218.689 90.8567 218.999 91.1365 218.856C91.4425 218.726 91.8091 218.543 92.1308 218.729C92.468 218.901 92.6494 219.276 92.9998 219.428C93.2782 219.691 93.5118 219.233 93.5787 219.003C93.7003 218.731 93.9981 218.613 94.1498 218.376C94.3254 218.168 94.7158 218.145 94.8499 218.411C94.9013 218.481 94.9494 218.554 94.9891 218.631C95.0086 219.731 95.666 220.685 95.806 221.761C96.0216 222.242 96.682 222.095 97.0015 221.811C97.4867 221.589 98.045 221.771 98.5397 221.574C98.9596 221.44 99.3684 221.269 99.7871 221.136C100.229 221.105 100.302 221.674 100.229 222C100.138 222.524 100.036 223.064 100.095 223.599C100.117 223.937 100.462 224.271 100.19 224.591C99.9961 224.876 99.5902 225.117 99.685 225.514C99.819 225.981 100.574 226.093 100.806 225.65C101.12 225.274 101.955 225.449 101.973 224.823C101.961 224.393 102.166 223.976 102.526 223.736C102.788 223.546 103.092 223.423 103.361 223.245C103.668 222.901 104.332 222.964 104.515 223.406C104.785 223.765 105.194 223.974 105.586 224.173C105.81 224.433 106.054 224.813 106.448 224.768C106.761 224.71 107.077 224.515 107.151 224.184C107.224 223.916 107.087 223.633 107.233 223.375C107.39 222.946 107.845 222.648 108.304 222.726C108.769 222.764 109.181 223.023 109.526 223.32C109.885 223.462 110.309 222.987 110.617 223.342C110.869 223.608 110.87 224.059 111.211 224.25C111.511 224.494 111.786 224.768 112.076 225.024C112.948 226.044 114.636 227.486 113.04 228.668C112.638 229.806 112.057 231.903 110.438 231.209C109.24 230.744 109.625 232.823 108.257 232.262C107.004 232.413 105.847 234.183 106.344 235.457C107.451 236.274 108.542 237.477 110.09 237.495C112.04 237.134 110.921 240.453 112.757 240.445C114.603 240.711 114.354 243.225 115.777 244.126C117.123 245.24 117.472 246.898 117.321 248.52C118.18 249.854 119.571 250.976 120.933 251.755C122.544 252.035 123.175 250.107 124.402 249.385C125.199 247.998 125.923 246.697 127.585 246.175C128.631 245.74 129.765 245.825 130.658 245.108C130.985 245.608 131.864 246.644 131.874 245.3C131.229 244.049 131.988 242.044 130.445 241.305C128.682 240.92 129.106 238.846 128.732 237.541C128.721 237.012 128.093 237 127.826 236.677C127.946 236.251 128.054 235.822 128.182 235.399C128.244 235.23 128.396 235.093 128.579 235.071C128.849 235.022 129.144 235.084 129.395 234.945C129.448 234.917 129.497 234.881 129.538 234.811C130.005 235.484 130.839 236.189 131.735 235.875C132.606 236.133 133.235 237.028 134.205 236.972C135.218 236.609 135.682 238.096 136.683 237.922C137.614 237.86 138.221 238.579 138.453 239.37C138.934 240.216 139.884 240.542 140.559 241.138C141.283 241.778 141.93 240.813 142.584 240.805C142.809 241.246 142.595 241.792 142.892 242.294C143.13 242.835 142.323 243.827 143.299 243.833C143.786 243.705 144.334 242.836 144.688 243.695C144.756 244.347 145.188 245.395 145.905 244.568C146.379 244.102 146.911 243.704 147.601 243.72C148.061 243.591 148.621 243.598 148.984 243.95C149.36 244.159 149.558 243.57 149.923 243.626C150.47 243.637 150.942 243.958 151.367 244.27C151.743 244.278 151.898 243.835 152.202 243.676C152.677 243.247 153.172 242.836 153.635 242.399C153.84 242.063 153.65 241.66 153.752 241.303C154.13 241.282 154.405 241.595 154.701 241.781C154.977 242.006 155.226 242.26 155.479 242.508C155.953 243.337 154.103 243.915 154.966 244.647C155.877 245.108 156.168 246.407 155.607 247.241C155.021 247.402 154.137 247.225 154.122 248.095C153.454 248.995 152.18 248.858 151.2 249.023C150.241 249.205 150.424 250.342 151.155 250.68C151.726 251.228 152.145 251.966 152.891 252.307C153.449 252.121 154.021 251.608 154.517 252.264C155.133 252.925 154.82 254.003 155.491 254.644C155.942 255.409 155.949 256.35 156.407 257.119C156.808 257.861 157.38 258.677 158.251 258.864C159.251 258.794 160.411 258.709 161.202 258.045C161.831 257.348 162.75 256.463 163.762 256.931C164.656 257.555 165.422 256.51 164.834 255.713C164.632 254.961 163.45 255.864 163.643 254.922C163.717 254.459 164.257 254 164.653 254.379C165.065 254.811 165.79 254.813 166.219 255.286C166.411 255.799 166.428 256.351 166.115 256.803C166.21 257.269 166.744 257.54 167.176 257.628C167.711 257.537 167.998 258.401 168.488 258.021C168.756 257.681 169.021 257.082 169.56 257.383C169.963 257.558 170.13 257.998 170.191 258.403C170.24 258.767 170.489 259.171 170.909 259.077C171.333 259.044 171.851 258.919 172.171 259.292C172.497 259.686 172.213 260.299 172.592 260.668C173.01 260.781 173.532 261.475 173.912 261.168C173.942 260.744 173.589 260.352 173.767 259.929C173.977 260.26 174.417 260.148 174.719 260.301C174.915 260.507 175.161 260.487 175.387 260.367C175.673 260.35 176.012 260.418 176.121 260.698C176.425 260.859 176.785 260.394 177.024 260.756C177.2 261.044 177.654 260.745 177.749 261.138C177.813 261.505 178.131 261.706 178.464 261.8C179.009 262.034 179.573 262.237 180.161 262.329C180.301 262.201 180.853 262.086 180.514 261.889C180.246 261.61 180.53 261.34 180.693 261.114C181.107 261.741 181.523 261.072 181.786 261.6C181.629 262.533 180.917 263.873 182.178 264.357C182.626 265.179 181.427 265.793 181.59 266.656C181.549 267.466 182.038 268.143 182.284 268.882C182.633 269.587 182.978 270.317 183.045 271.107C183.497 272.055 184.735 271.709 185.499 272.184C185.815 273.15 186.895 273.532 187.811 273.25C188.684 273.317 188.849 274.331 189.048 275.008C189.51 276.218 189.613 277.522 189.903 278.774C190.341 279.318 191.028 280.017 190.236 280.621C189.846 281.712 191.554 281.146 192.156 281.192C192.546 281.167 192.957 281.148 193.329 281.283C194.075 281.786 194.129 282.958 193.848 283.712C193.485 284.611 194.913 285.335 194.181 286.153C193.633 286.676 194.084 287.61 194.817 287.191C195.564 287.261 196.379 287.206 196.733 286.432C197.41 285.529 198.178 286.661 198.89 286.852C199.428 286.964 199.622 286.296 200.122 286.679C200.738 286.727 201.754 286.39 201.26 285.645C201.119 284.555 202.828 284.844 202.689 283.896C202.454 283.131 202.715 282.413 202.704 281.639C203.151 281.247 203.61 280.705 204.198 280.489C205.098 280.497 206.135 280.674 206.918 280.109C207.247 279.534 207.144 278.645 207.902 278.422C208.032 277.713 208.512 277.21 209.265 277.409C209.896 277.097 209.256 276.231 210.309 276.43C210.476 276.679 210.461 276.974 210.481 277.239C210.481 277.356 210.467 277.496 210.616 277.516C211.081 277.739 211.546 277.962 212.011 278.185C212.13 278.168 212.286 278.135 212.361 278.259C212.449 278.37 212.487 278.508 212.527 278.64C212.504 279.324 212.452 280.049 212.803 280.668C213.143 281.521 213.265 282.479 213.833 283.227C213.733 283.832 214.64 283.821 214.902 284.244C215.37 284.463 215.537 283.845 215.691 283.62C216.312 283.729 215.72 284.623 216.151 284.962C216.472 285.461 215.571 286.312 216.375 286.452C216.989 286.318 217.396 286.696 217.716 287.158C218.161 287.529 218.588 286.917 218.971 286.72C219.434 286.368 219.996 285.899 220.618 286.083C221.087 286.395 220.708 287.044 220.945 287.475C221.16 287.954 221.524 288.432 221.173 288.952L221.153 289.029C221.041 289.687 221.556 290.443 221.041 291.016C220.515 291.754 222.082 291.7 221.82 292.369C221.384 293.049 220.564 293.447 220.335 294.265C220.111 294.845 219.824 295.643 220.326 296.159C220.918 296.688 221.768 295.916 222.323 296.52C222.899 297.054 223.475 296.295 224.015 296.096C224.896 295.899 224.558 294.874 225.168 294.425C225.757 294.132 226.254 294.818 226.859 294.794C227.351 294.801 227.959 294.639 228.068 295.319C228.129 296.023 228.734 296.2 229.302 296.338C229.784 296.552 230.185 296.907 230.57 297.261C231.331 297.209 230.489 296.221 230.787 295.776C230.976 295.102 231.174 294.409 231.118 293.701C231.461 293.012 231.846 292.295 231.819 291.503C231.8 290.908 232.383 290.673 232.854 290.915C233.493 290.718 233.023 289.701 233.708 289.453L233.779 289.377L233.85 289.303C234.466 289.136 235.048 288.823 235.65 288.667C236.135 288.845 236.61 288.85 237.055 288.606C237.449 288.822 238.147 289.124 238.125 288.376C238.143 287.912 238.852 287.021 238.023 286.962C237.674 286.473 238.622 285.973 238.972 286.447C239.277 286.988 239.827 285.871 240.014 286.598C240.363 287.069 241.062 286.86 241.291 286.419C241.596 286.416 242.435 286.831 242.082 286.193C241.941 285.399 243.101 285.807 243.532 285.914C244.486 286.24 245.197 287.006 246.11 287.414C246.614 287.45 246.587 286.645 247.09 286.638C247.425 286.261 247.57 285.764 247.854 285.354C248.264 285.791 249.035 286.355 249.586 285.828C249.909 285.092 250.785 284.998 251.481 285.156C252.174 285.331 252.086 286.227 252.487 286.68C252.593 287.087 252.547 287.274 253.046 287.222C253.643 287.237 253.158 288.012 253.762 287.877C254.216 287.821 254.365 288.218 253.947 288.437C253.846 288.969 254.621 288.347 254.567 288.813C255.167 289.54 255.629 287.995 256.184 288.524C256.45 289.058 256.153 289.976 257.073 289.683C257.631 289.751 257.217 290.647 257.855 290.777C258.505 291.032 258.847 290.197 259.541 290.362C260.151 290.416 260.278 289.852 260.274 289.432C260.728 288.77 261.217 288.1 261.886 287.642C262.521 287.36 263.234 288.088 263.83 287.614C264.477 286.917 263.465 286.192 262.823 286.036C262.241 285.895 261.692 285.351 262.142 284.767L262.161 284.655C262.784 284.774 263.521 284.821 264.034 284.375C264.283 283.926 264.936 284.172 265.144 284.539C265.527 285.048 266.005 285.616 266.698 285.631C267.18 285.62 267.398 285.096 267.466 284.69C267.876 284.218 268.568 283.919 268.671 283.238C268.867 282.664 269.499 283.039 269.855 283.202C270.295 283.277 270.791 282.988 271.189 283.285C271.57 283.502 272.029 283.562 272.367 283.861C272.585 284.007 272.867 284.141 273.123 283.991C273.281 284.133 273.451 284.295 273.634 284.442C273.96 284.702 274.377 284.971 274.813 284.854C275.057 284.656 275.205 284.971 275.416 285.027C275.678 284.999 275.784 284.721 275.901 284.522C276.035 284.24 276.396 284.149 276.676 284.253C276.943 284.502 277.19 284.215 277.421 284.073C277.953 283.746 278.599 283.537 279.225 283.67C279.456 283.759 279.721 283.8 279.958 283.711C280.27 283.603 280.492 282.998 280.866 283.215C281.13 283.627 281.567 283.934 281.903 284.303C282.174 284.694 282.715 284.686 283.129 284.572C283.563 284.676 283.962 284.892 284.325 285.146C284.673 285.45 285.161 285.653 285.323 286.118C285.244 286.417 285.334 287.19 285.802 286.877C286.071 286.346 286.438 285.809 287.009 285.578C287.323 285.429 287.845 285.461 287.91 285.872C288.077 286.206 288.623 286.369 288.84 286C289.341 286.166 289.502 286.763 289.972 286.977C290.354 286.818 290.704 287.108 291.058 287.272C291.586 286.949 292.364 287.203 292.515 287.869C292.526 288.472 292.808 289.085 293.317 289.425C293.927 289.645 294.582 290.136 294.471 290.873C294.338 291.559 294.073 292.379 294.568 292.985C295.189 293.224 295.796 293.527 296.459 293.631C297.101 293.505 297.7 293.867 298.2 294.226C298.851 294.661 299.727 295.097 300.491 294.677C300.85 295.039 301.131 295.366 301.071 295.925C301.01 296.402 301.468 296.243 301.768 296.227C302.335 296.141 302.863 296.394 303.38 296.584C303.723 296.758 304.121 296.727 304.447 296.535C304.806 296.324 305.261 296.318 305.626 296.513C306.245 296.841 306.349 297.619 306.858 298.052C307.24 298.54 307.831 298.382 308.283 298.106C308.857 297.991 309.175 298.791 309.774 298.667C310.235 298.539 310.811 298.262 311.231 298.64C313.047 297.806 313.782 299.478 314.299 300.931C314.989 302.305 316.583 301.756 317.736 301.513C319.055 301.234 320.292 302.315 321.26 303.032C321.918 304.498 323.219 303.214 322.351 302.185C320.962 301.027 323.092 299.37 321.527 298.569C319.854 298.666 319.848 296.508 318.498 296.235C317.114 297.338 317.947 294.364 317.072 295.256C315.369 295.277 318.026 293.547 316.928 293.029C316.178 291.635 317.487 289.539 316.962 287.824C317.092 285.965 316.404 284.251 315.78 282.54C315.403 281.15 315.365 279.621 313.88 278.89C312.787 277.751 314.699 276.673 314.873 275.527C315.516 274.452 316.232 273.423 316.933 272.385C317.604 271.639 317.322 270.425 318.119 269.764C318.798 269.435 319.262 268.803 319.564 268.126C319.848 267.324 320.455 266.72 320.959 266.056C321.39 265.049 322.181 264.301 322.865 263.469C323.013 262.757 323.087 261.596 324.167 261.627C325.026 260.193 325.955 258.802 326.899 257.422C326.999 257.279 327.098 257.135 327.197 256.992C327.355 256.753 327.556 256.518 327.591 256.224C327.574 255.971 327.659 255.719 327.811 255.518C328.073 255.201 328.4 254.934 328.608 254.564C329.244 253.893 329.868 253.218 330.396 252.468C330.716 251.743 331.014 250.881 331.816 250.538C332.434 249.837 332.699 248.907 333.278 248.178C334.793 246.636 336.132 244.935 337.556 243.31C338.386 242.212 339.519 241.413 340.505 240.469C340.893 240.206 341.38 240.071 341.685 239.696C341.987 239.289 341.898 238.719 342.235 238.32C342.458 237.923 342.9 237.69 343.167 237.361C343.422 236.578 344.488 236.777 344.899 236.145C345.121 234.962 345.059 233.662 345.754 232.622C347.597 231.931 349.516 231.44 351.469 231.186C352.275 230.986 353.108 231.134 353.925 231.048C354.323 230.346 354.802 229.688 355.37 229.114C355.58 227.953 355.956 226.832 356.246 225.69C356.635 224.554 356.552 223.367 356.441 222.194C356.646 220.911 356.297 219.61 356.201 218.314C355.661 217.925 355.114 217.169 355.449 216.355C355.623 215.069 352.77 215.42 353.673 213.906C354.045 212.664 351.614 212.654 352.169 211.361C352.436 210.105 353.708 209.095 354.968 209.642C355.746 209.695 358.067 208.757 356.788 208.065C355.404 207.227 353.98 206.374 352.868 205.18C351.589 204.545 351.637 202.776 350.414 202.117C350.303 202.072 350.204 201.996 350.133 201.898C349.981 201.447 350.061 200.867 349.971 200.464C349.988 199.952 349.998 199.413 349.563 199.109C349.42 198.456 348.775 198.388 348.367 198.019C348.055 197.44 347.581 196.859 347.688 196.157C347.996 195.587 348.052 194.56 347.267 194.365C346.571 194.649 346.39 193.809 345.977 193.468C345.258 193.271 344.977 192.422 344.284 192.161C343.71 191.801 343.863 190.943 343.33 190.523C343.158 190.033 343.208 189.262 342.567 189.128C342.387 187.852 341.091 188.783 340.663 187.804C340.053 186.97 340.091 185.849 340.686 185.015C341.311 184.268 341.213 183.273 341.553 182.403C341.801 181.651 341.187 180.448 340.336 180.327C339.576 179.744 341.309 178.322 339.847 178.21C338.752 178.042 339.235 176.142 338.01 176.283C336.784 176.067 337.685 174.695 337.093 174.002C336.412 173.253 336.177 172.36 336.304 171.374C336.435 170.283 336.156 169.21 336.125 168.123C336.677 167.222 335.114 166.798 335.669 166.006C335.743 165.875 335.837 165.754 335.943 165.647C336.856 164.817 338.44 164.501 338.625 163.071C339.03 161.942 337.543 161.778 337.594 160.859C337.935 160.374 337.37 159.405 337.759 159.332C339.063 158.822 337.934 157.852 337.725 157.193C338.423 156.313 338.347 155.144 338.972 154.218C339.459 153.705 339.52 153.161 339.404 152.608C339.315 152.184 339.121 151.755 338.936 151.33C338.59 150.569 338.543 149.675 338.241 148.936C337.562 148.147 336.502 146.58 335.396 147.405C334.814 146.655 334.315 145.819 333.324 145.523C333.445 145.209 333.966 144.158 332.992 144.382C332.309 143.88 330.708 145.317 330.652 143.968C329.812 143.449 328.894 142.79 327.855 143.256C327.575 142.037 325.981 143.322 325.05 142.688C323.7 142.184 325.082 139.467 323.273 139.845C323.672 138.542 324.347 137.359 324.883 136.121C325.719 134.865 326.573 133.616 327.288 132.286C327.742 131.573 328.12 130.815 328.539 130.081C329.111 128.741 330.36 127.971 331.377 127.015C333.011 124.859 335.745 124.074 338.253 123.459C340.443 122.97 341.367 120.647 343.174 119.548C344.183 119.101 344.548 117.936 344.545 116.912C344.52 115.421 344.597 113.919 344.264 112.452C343.853 110.935 344.415 109.331 343.857 107.837C343.853 107.589 343.85 107.34 343.847 107.092C343.87 106.646 343.781 106.19 343.87 105.751C344.139 105.322 344.375 104.651 343.895 104.273C343.861 103.81 343.884 103.343 343.817 102.882C343.619 101.736 342.794 100.846 342.156 99.9186C342.159 98.7789 342.23 97.5948 342.746 96.5568C343.107 96.0606 342.949 95.4172 342.692 94.914C342.331 94.3866 341.585 94.2731 341.278 93.6953C341.094 92.3713 340.142 91.3635 339.415 90.305C338.689 88.6346 338.069 86.9083 337.383 85.2162C336.709 83.2987 335.628 81.5607 334.934 79.649C333.521 76.2972 332.473 72.8098 331.513 69.3055C331.39 69.051 331.302 68.7796 331.244 68.503C331.074 67.8563 331.216 67.1588 330.967 66.5307C330.734 66.115 330.424 65.747 330.161 65.3473C329.807 64.615 329.781 63.7757 329.757 62.9765C329.782 62.459 329.8 61.8993 329.465 61.4633C328.766 60.5451 328.66 59.3518 328.588 58.2397C328.635 57.3997 328.7 56.6332 328.094 55.9603C327.629 55.3782 326.809 54.5287 327.533 53.8294C328.38 52.5446 328.832 50.7574 327.957 49.3724C327.139 48.5779 327.562 47.2036 326.686 46.4565C326.183 45.6239 324.873 45.8652 324.466 44.9367C324.302 43.8727 323.553 43.0026 322.669 42.434C321.861 41.6701 320.68 41.9724 319.683 41.9423C318.996 41.0182 318.001 40.3732 316.953 39.9273C316.885 39.8271 316.819 39.7268 316.752 39.6269C316.64 39.2927 316.174 39.0848 315.909 39.3746C315.591 39.7918 315.052 40.1055 314.549 39.7907C314.065 39.6592 313.467 39.1652 313.856 38.6334C314.285 38.1901 314.088 37.4717 313.458 37.3828C313.001 37.1926 312.339 37.3424 312.022 36.92C312.074 36.5737 312.684 36.2464 312.256 35.8619C311.359 35.3668 310.295 35.2595 309.283 35.2805C308.809 35.03 308.243 34.7953 307.708 34.9863C306.793 35.3741 306.738 36.5682 305.945 37.0996C305.327 37.4493 304.55 37.4456 303.873 37.6046C296.308 38.553 288.712 39.228 281.134 40.0713C277.439 40.281 273.75 40.5881 270.065 40.926C269.319 40.9906 268.575 41.0678 267.828 41.1159C266.887 41.1941 265.942 41.1614 265.002 41.0846C264.259 41.0835 263.546 40.822 262.803 40.8136C261.981 40.9065 261.165 40.7342 260.355 40.6152C258.411 40.4687 256.46 40.4077 254.509 40.3739C250.903 40.0897 247.293 39.7723 243.673 39.7029C240.574 39.4466 237.526 38.7623 234.449 38.3238C234.423 38.3131 234.398 38.3028 234.372 38.2922C231.963 37.8915 229.52 37.6998 227.085 37.5176C224.554 37.2719 222.051 36.7933 219.533 36.4429C217.915 36.26 216.312 35.9012 214.678 35.8924C214.271 34.717 213.608 36.3254 213.066 36.5542C211.569 37.9561 209.692 38.8541 207.761 39.4895C204.407 41.0189 200.662 41.1059 197.06 41.5162C196.159 41.6436 194.992 41.7913 194.407 40.9396C194.055 41.0597 193.868 41.4707 193.441 41.4872C192.814 41.5133 192.144 41.5445 191.564 41.2595C191.022 41.0578 190.559 40.6806 189.999 40.5216C189.407 40.4885 188.804 40.4423 188.238 40.2432C187.512 40.0838 187.021 39.4803 186.627 38.8938C186.376 38.3377 185.715 38.4193 185.215 38.4384C184.62 38.2764 184.103 37.8867 183.73 37.4111C183.521 36.6317 183.334 36.8293 183.234 36.3632L183.181 35.4795C183.184 35.4527 183.188 35.4259 183.193 35.3995C183.267 35.1795 183.293 34.9484 183.218 34.7226C183.127 33.934 183.151 33.137 183.131 32.3444C183.154 31.3667 183.012 30.364 182.558 29.4972C182.275 28.8438 181.934 28.1585 181.989 27.4158C182.222 26.4837 181.536 27.0037 181.173 27.3358C180.082 27.2763 180.71 25.5001 180.519 24.7255C180.51 23.3496 178.351 23.3834 178.357 22.0256C178.433 21.3358 178.869 19.4094 179.707 20.0974C181.233 20.8793 182.612 21.8992 184.017 22.8747C185.164 23.1958 185.793 24.4669 186.767 24.9161C186.881 25.5857 187.566 25.0054 187.67 25.2691C188.319 26.3236 189.394 27.2425 189.343 28.5335C189.845 28.6374 190.228 30.1304 190.646 29.4994C190.875 28.5092 190.706 27.3769 189.908 26.6747C189.053 25.7958 188.368 24.7101 187.212 24.1577C185.244 22.7227 183.088 21.5742 181.022 20.288C180.156 19.653 179.177 19.2188 178.244 18.701C177.461 17.6906 176.372 16.9641 175.019 17.2572C173.866 17.1393 172.709 17.2248 171.552 17.237C170.564 17.0724 169.561 17.4445 168.583 17.1841C167.28 16.6295 165.765 17.0316 164.441 17.3119C164.079 17.3343 163.701 17.3729 163.327 17.4375C162.773 17.5275 162.227 17.6979 161.754 18.0064C161.234 18.1511 160.695 18.2485 160.16 18.33C159.109 18.5056 158.087 18.8258 157.097 19.1839C156.989 19.2372 156.867 19.2842 156.742 19.3272C155.745 19.6551 154.703 19.8057 153.674 19.9986C153.064 20.1176 152.442 20.2064 151.885 20.4191C150.453 20.8554 148.881 20.4103 147.443 20.9759C146.09 21.4776 144.697 21.8897 143.407 22.5453C142.634 23.058 141.779 23.3239 140.909 23.6181C139.35 24.1705 138.461 25.6319 137.237 26.6412C135.029 28.298 132.281 29.0903 129.569 29.3933C127.059 29.487 124.367 29.9416 122.432 31.6763C121.299 32.5563 120.411 33.7118 119.734 34.9687C119.126 35.8454 118.491 36.711 117.819 37.5371C116.862 38.463 116.155 39.6166 115.152 40.5014C114.884 40.7739 114.613 41.045 114.394 41.2874C113.756 41.7094 113.048 42.1659 112.52 42.8109C110.669 43.9282 108.528 44.4761 106.386 44.6348C105.291 44.7553 104.176 44.7755 103.101 45.0296C102.628 45.1765 102.191 45.4178 101.768 45.6702C100.596 46.1414 99.3867 46.5105 98.1691 46.8444C97.4165 46.8385 96.6548 46.988 95.9914 47.3479C95.3946 47.4834 94.7155 47.1433 94.1777 47.5371C93.423 47.904 92.6527 48.3293 91.7874 48.3175C91.0392 48.3612 90.2613 48.2768 89.5542 48.5798C89.3879 48.6327 89.2174 48.6789 89.0892 48.6889C88.6547 48.737 88.1732 48.7796 87.6913 48.8229C86.9545 48.8009 86.2181 49.0187 85.6106 49.4363C82.0629 50.7526 78.3477 51.5823 74.8874 53.0481C73.509 53.5892 71.9682 53.5407 70.5078 53.8687C70.0568 54.6928 69.021 54.7292 68.2383 55.0396C66.5759 55.5725 64.7978 55.805 63.2556 56.6677C62.1643 57.5139 61.2373 58.7249 59.8136 58.9974C59.089 59.0279 58.3503 59.1506 57.6246 59.0099C56.631 58.6591 55.5416 57.8948 54.4842 58.589C53.2416 58.5633 53.7878 59.7437 54.4735 60.158C54.5257 61.921 55.1097 63.5969 55.8476 65.1817C55.9449 65.4237 55.9688 65.6676 55.9589 65.9266C55.3833 67.6833 55.4616 69.5656 55.6459 71.3796C55.5141 72.5887 56.4096 73.5778 56.5399 74.7428C56.4015 75.935 55.7301 77.1202 56.0738 78.3481C57.6359 81.3568 58.1182 84.7961 58.1109 88.1527C58.4135 89.2982 58.2398 90.6913 59.1951 91.5714L59.2175 91.7693L59.1992 91.9585C58.8524 93.057 57.7972 93.7277 57.2422 94.7157C56.4646 95.6041 56.941 96.5881 57.0791 97.5526C56.6031 99.8635 55.5104 102.197 53.5399 103.602C52.2543 104.643 50.4553 104.981 49.4335 106.346C48.6361 107.593 49.8801 109.043 49.3568 110.357C48.2321 110.968 48.3434 113.047 49.9062 112.847C51.3295 112.993 51.836 114.544 52.867 115.303C54.8853 116.258 56.5208 117.972 57.373 120.006C57.7046 120.366 57.9364 120.837 58.2717 121.231C58.6177 121.665 59.0045 122.095 59.5165 122.334C59.8764 122.512 60.2426 122.68 60.5776 122.904C60.6536 122.952 60.7293 123 60.8042 123.041C61.1488 123.255 61.5014 123.485 61.7537 123.816C61.9524 124.029 62.1522 124.258 62.2279 124.547C62.3234 124.85 62.3917 125.17 62.5742 125.437C62.6723 125.595 62.7865 125.743 62.9085 125.883C62.5133 126.707 61.6171 127.485 61.9535 128.482C62.633 129.162 62.5004 130.267 61.8944 130.968C61.1253 131.919 59.7652 132.467 59.5455 133.795C59.2822 135.692 60.2463 137.456 60.3492 139.323C60.6294 140.466 61.7684 141.103 62.8405 141.334C63.6207 141.64 64.5701 142.48 64.1202 143.395C63.1454 144.116 63.6695 145.334 63.3426 146.301C62.8912 147.232 62.9103 148.368 63.6464 149.147C64.0107 149.685 64.4746 150.146 64.9319 150.604C65.1559 151.518 64.8019 151.64 64.4996 152.461" fill="#EECE4B"/>
</svg>
