<svg width="87" height="64" viewBox="0 0 87 64" fill="none" xmlns="http://www.w3.org/2000/svg">
<path d="M62.1838 27.1247C59.9834 27.1247 58.1167 26.7797 56.5838 26.0896C55.0757 25.3995 53.9384 24.5369 53.1719 23.5018C52.4302 22.442 52.0346 21.3576 51.9852 20.2485C51.9852 20.0267 52.0594 19.8418 52.2077 19.694C52.356 19.5461 52.5415 19.4721 52.764 19.4721H56.1759C56.7198 19.4721 57.0907 19.7186 57.2885 20.2115C57.8324 21.9614 59.4642 22.8363 62.1838 22.8363C63.692 22.8363 64.8664 22.4913 65.707 21.8012C66.5723 21.1111 67.005 20.1253 67.005 18.8437C67.005 17.5621 66.6094 16.6379 65.8183 16.071C65.0518 15.4795 63.9145 15.1837 62.4063 15.1837H58.5865C58.3393 15.1837 58.1291 15.0975 57.956 14.925C57.783 14.7524 57.6964 14.5429 57.6964 14.2965V12.7068C57.6964 12.2385 57.8571 11.8688 58.1785 11.5977L64.7798 5.16512H54.2103C53.9384 5.16512 53.7159 5.07886 53.5428 4.90634C53.3697 4.73381 53.2832 4.52432 53.2832 4.27786V1.80094C53.2832 1.52983 53.3697 1.30801 53.5428 1.13549C53.7159 0.96297 53.9384 0.876709 54.2103 0.876709H70.1573C70.4293 0.876709 70.6518 0.96297 70.8249 1.13549C70.9979 1.30801 71.0845 1.52983 71.0845 1.80094V4.05605C71.0845 4.47503 70.9238 4.82008 70.6023 5.09118L64.2236 11.6347L64.6686 11.6717C67.0421 11.8688 68.9211 12.5836 70.3057 13.8159C71.7149 15.0482 72.4196 16.8104 72.4196 19.1025C72.4196 20.7291 71.9745 22.1462 71.0845 23.3539C70.2191 24.5616 69.0077 25.4981 67.45 26.1635C65.9172 26.8043 64.1617 27.1247 62.1838 27.1247Z" fill="white"/>
<path d="M65.262 59.6164C65.0147 59.6164 64.8046 59.5302 64.6315 59.3577C64.4584 59.1851 64.3719 58.9756 64.3719 58.7292V53.9971H52.6156C52.3684 53.9971 52.1583 53.9109 51.9852 53.7384C51.8121 53.5658 51.7256 53.3563 51.7256 53.1099V50.559C51.7256 50.1647 51.8616 49.795 52.1335 49.4499L63.0739 34.3666C63.1975 34.1694 63.3829 34.0215 63.6302 33.9229C63.8774 33.7997 64.1494 33.7381 64.4461 33.7381H68.5255C68.7975 33.7381 69.0077 33.8244 69.156 33.9969C69.3291 34.1448 69.4156 34.3542 69.4156 34.6254V49.5978H72.7533C73.0253 49.5978 73.2355 49.6841 73.3838 49.8566C73.5569 50.0045 73.6434 50.214 73.6434 50.4851V53.1099C73.6434 53.3563 73.5569 53.5658 73.3838 53.7384C73.2355 53.9109 73.0253 53.9971 72.7533 53.9971H69.4156V58.7292C69.4156 58.9756 69.3291 59.1851 69.156 59.3577C69.0077 59.5302 68.7975 59.6164 68.5255 59.6164H65.262ZM56.9547 49.7457H64.4832V39.1356L56.9547 49.7457Z" fill="white"/>
<path fill-rule="evenodd" clip-rule="evenodd" d="M6 0C2.68629 0 0 2.68629 0 6V58C0 61.3137 2.6863 64 6.00001 64H80.7945C84.1082 64 86.7945 61.3137 86.7945 58V6C86.7945 2.68629 84.1082 0 80.7945 0H6ZM44.7123 10.5205C44.7123 8.58377 46.2824 7.0137 48.2192 7.0137H76.274C78.2107 7.0137 79.7808 8.58377 79.7808 10.5205V53.4795C79.7808 55.4162 78.2107 56.9863 76.274 56.9863H48.2192C46.2824 56.9863 44.7123 55.4162 44.7123 53.4795V10.5205Z" fill="white"/>
<path d="M14.7812 28.9314C14.7812 25.0579 17.9214 21.9177 21.7949 21.9177C25.6685 21.9177 28.8086 25.0579 28.8086 28.9314V52.0182C28.8086 53.3094 27.7619 54.3561 26.4707 54.3561C25.1796 54.3561 24.1328 53.3094 24.1328 52.0182V50.9014C24.1328 49.6102 23.0861 48.5635 21.7949 48.5635C20.5038 48.5635 19.457 49.6102 19.457 50.9014V52.0182C19.457 53.3094 18.4103 54.3561 17.1191 54.3561C15.828 54.3561 14.7812 53.3094 14.7812 52.0182V28.9314Z" fill="#24296B"/>
<ellipse cx="21.7947" cy="14.0274" rx="4.38356" ry="4.38356" fill="#24296B"/>
</svg>
