<svg width="32" height="32" viewBox="0 0 32 32" fill="none" xmlns="http://www.w3.org/2000/svg">
<path fill-rule="evenodd" clip-rule="evenodd" d="M26.9453 5.12505C25.7509 3.8172 24.0438 3 22.1538 3C18.5312 3 15.5912 6.01576 15.5912 9.73503C15.5912 10.2633 15.6476 10.7753 15.7603 11.2686C10.3041 10.9873 5.46733 8.30921 2.22743 4.22921C1.66182 5.22763 1.33885 6.3859 1.33885 7.61938C1.33885 9.95472 2.49742 12.0165 4.26006 13.2244C3.18522 13.1919 2.17104 12.8859 1.28417 12.3849V12.467C1.28417 15.7315 3.54749 18.4549 6.55328 19.0712C6.00304 19.2294 5.42205 19.3089 4.82311 19.3089C4.40018 19.3089 3.9875 19.2679 3.58764 19.1892C4.42325 21.8639 6.84634 23.812 9.7197 23.8642C7.47347 25.6712 4.64112 26.7483 1.56612 26.7483C1.03639 26.7483 0.512643 26.7175 0 26.656C2.90497 28.5639 6.35762 29.6794 10.064 29.6794C22.141 29.6794 28.743 19.4183 28.743 10.5172C28.743 10.224 28.7379 9.93164 28.7268 9.64442C30.0092 8.69473 31.1234 7.50911 32 6.15852C30.8243 6.69363 29.5581 7.05607 28.2304 7.21848C29.5863 6.3859 30.627 5.06607 31.1174 3.49322C29.8478 4.26426 28.4448 4.82502 26.9453 5.12505Z" fill="white"/>
</svg>
