<svg width="503" height="403" viewBox="0 0 503 403" fill="none" xmlns="http://www.w3.org/2000/svg">
<path opacity="0.5" d="M140 75.0331C76.4554 58.0496 26.1185 77.2605 6.66967 136.545C-9.14528 184.752 6.88757 238.227 16.4628 266.097C28.4318 300.936 154.106 301.48 172.06 273.174C190.013 244.868 269.444 244.324 312.968 204.042C356.492 163.761 438 118.403 373 67.401C304.443 13.6087 219.431 96.2625 140 75.0331Z" fill="#EDF4FF"/>
<path opacity="0.5" d="M342.32 68.5896C312.94 9.74083 265.2 -15.2347 207.909 9.47593C161.322 29.5696 131.891 77.008 117.359 102.645C99.1945 134.692 182.052 229.186 215.148 223.88C248.245 218.574 301.279 277.709 360.287 283.621C419.295 289.533 507.272 320.533 502.409 238.056C497.279 151.065 379.044 142.151 342.32 68.5896Z" fill="#EDF4FF"/>
<g clip-path="url(#clip0)">
<path d="M366.066 203.533V334.579L322.384 370.665H98.9092V233.288L164.116 203.533H366.066Z" fill="#CDDFEE"/>
<path opacity="0.1" d="M366.066 203.533V204.058L350.385 214.555L322.384 233.288H98.9092L164.116 203.533H366.066Z" fill="black"/>
<path opacity="0.1" d="M366.066 203.533V334.579L322.384 370.665L322.7 232.971L350.385 214.555L365.813 203.533H366.066Z" fill="black"/>
<path d="M307.191 221.575H171.08L181.209 215.877H311.623L307.191 221.575Z" fill="#2F2E41"/>
<path d="M424.663 377.792C424.663 377.792 427.302 388.826 424.903 389.306C422.504 389.786 410.75 389.631 407.872 390.111C404.993 390.591 398.996 389.786 398.996 387.627C398.996 385.468 405.233 384.029 405.233 384.029C405.233 384.029 414.109 379.231 414.348 378.991C414.588 378.752 424.663 377.792 424.663 377.792Z" fill="#2F2E41"/>
<path d="M422.505 312.785C422.505 312.785 421.785 320.941 421.785 321.66C421.785 322.38 422.505 333.654 421.785 334.134C421.065 334.614 422.265 337.972 422.265 339.171C422.265 340.371 426.103 360.281 425.143 367.957C424.184 375.633 426.583 374.914 425.863 375.633C425.143 376.353 425.143 376.353 425.143 377.792C425.143 379.231 417.467 380.431 417.467 380.431L409.071 327.417L413.389 311.585L422.505 312.785Z" fill="#575A89"/>
<path opacity="0.1" d="M422.505 312.785C422.505 312.785 421.785 320.941 421.785 321.66C421.785 322.38 422.505 333.654 421.785 334.134C421.065 334.614 422.265 337.972 422.265 339.171C422.265 340.371 426.103 360.281 425.143 367.957C424.184 375.633 426.583 374.914 425.863 375.633C425.143 376.353 425.143 376.353 425.143 377.792C425.143 379.231 417.467 380.431 417.467 380.431L409.071 327.417L413.389 311.585L422.505 312.785Z" fill="black"/>
<path d="M421.306 381.15C421.306 381.15 423.704 389.786 421.306 390.266C418.907 390.745 407.153 389.716 404.274 390.196C401.395 390.676 395.398 390.745 395.398 388.587C395.398 386.428 401.635 384.988 401.635 384.988C401.635 384.988 410.511 380.191 410.751 379.951C410.991 379.711 421.306 381.15 421.306 381.15Z" fill="#2F2E41"/>
<path d="M424.664 303.189C424.664 303.189 427.543 310.146 424.184 313.744C420.826 317.342 416.988 324.539 416.988 325.019C416.988 325.498 423.705 373.234 422.745 376.353C421.785 379.471 422.025 381.39 422.265 381.87C422.505 382.35 419.866 384.989 416.988 384.989C414.109 384.989 409.791 382.83 409.312 380.911C408.832 378.992 410.031 362.44 409.791 359.321C409.552 356.203 408.352 351.645 407.872 350.686C407.393 349.726 404.754 348.767 404.274 345.888C403.794 343.01 399.956 306.308 401.156 305.108C402.355 303.909 424.664 303.189 424.664 303.189Z" fill="#575A89"/>
<path d="M406.433 248.017C410.938 248.017 414.589 244.365 414.589 239.861C414.589 235.357 410.938 231.705 406.433 231.705C401.929 231.705 398.277 235.357 398.277 239.861C398.277 244.365 401.929 248.017 406.433 248.017Z" fill="#FFB9B9"/>
<path d="M411.47 243.939C411.47 243.939 409.791 252.815 410.99 253.774C412.19 254.734 401.875 256.173 401.875 256.173C401.875 256.173 400.675 244.419 400.435 243.219C400.196 242.02 411.47 243.939 411.47 243.939Z" fill="#FFB9B9"/>
<path d="M400.436 255.453C400.436 255.453 403.314 247.057 415.068 249.456C415.068 249.456 417.227 250.176 416.508 250.895C415.788 251.615 415.068 251.615 416.028 252.335C416.987 253.054 418.187 252.335 417.467 253.054C416.747 253.774 423.944 258.092 423.464 266.248C422.984 274.403 425.143 285.918 423.464 287.837C421.785 289.756 424.663 298.152 424.184 299.831C423.704 301.51 427.062 303.669 425.623 304.389C424.184 305.108 398.277 309.426 397.557 304.389C396.837 299.351 397.317 302.949 396.598 301.75C395.878 300.55 395.638 298.391 396.118 295.753C396.598 293.114 397.797 286.637 397.317 284.239C396.837 281.84 397.317 261.69 398.756 259.291C400.196 256.892 400.436 255.453 400.436 255.453Z" fill="#2596FF"/>
<path d="M405.473 313.984C405.473 313.984 409.071 327.657 404.513 327.657C399.956 327.657 400.196 313.504 400.196 313.504L405.473 313.984Z" fill="#FFB9B9"/>
<path d="M402.835 239.861C402.835 240.557 403.842 240.998 405.404 241.099H405.406C406.069 241.136 406.733 241.124 407.393 241.06C408.391 240.969 408.803 241.907 408.974 243.145C409.252 245.186 408.863 248.048 409.312 248.497C409.931 249.116 414.443 248.494 415.853 247.091C416.073 246.894 416.219 246.629 416.268 246.338C416.416 245.481 416.839 244.695 417.473 244.1C418.305 243.191 419.49 242.183 420.826 240.581C423.225 237.702 420.826 237.462 420.106 235.303C419.387 233.144 418.187 232.425 418.187 230.985C418.187 229.546 412.67 228.347 408.112 228.587C403.555 228.827 404.514 234.584 404.514 234.584C404.514 234.584 404.243 235.279 403.919 236.176C403.481 237.302 403.125 238.458 402.854 239.635C402.843 239.71 402.836 239.785 402.835 239.861Z" fill="#2F2E41"/>
<path opacity="0.1" d="M403.794 259.051C403.794 259.051 411.95 258.572 412.67 270.566C413.389 282.56 413.149 293.834 413.149 294.074C413.149 294.314 409.791 317.102 406.673 317.102C403.554 317.102 401.156 316.623 400.436 315.423C399.716 314.224 402.355 296.953 402.355 296.953C402.355 296.953 403.554 278.722 401.635 272.965C399.716 267.207 399.476 259.771 403.794 259.051Z" fill="black"/>
<path d="M402.595 257.852C402.595 257.852 410.751 257.372 411.471 269.366C412.19 281.36 411.95 292.635 411.95 292.875C411.95 293.115 408.592 315.903 405.474 315.903C402.355 315.903 399.956 315.423 399.237 314.224C398.517 313.025 401.156 295.753 401.156 295.753C401.156 295.753 402.355 277.522 400.436 271.765C398.517 266.008 398.277 258.572 402.595 257.852Z" fill="#2596FF"/>
<path d="M267.352 140.596C267.352 140.596 263.798 130.525 261.231 133.684C258.664 136.844 265.18 142.175 265.18 142.175L267.352 140.596Z" fill="#A0616A"/>
<path d="M284.136 130.722L281.998 131.515C281.998 131.515 280.976 136.054 281.371 136.844C281.766 137.634 281.964 137.041 281.371 138.621C280.779 140.201 279.002 144.348 278.804 144.94C278.607 145.532 267.351 141.188 267.351 139.016C267.351 139.016 264.982 141.781 263.797 142.373C263.797 142.373 276.83 151.851 278.607 153.036C280.384 154.221 281.371 153.629 282.951 152.246C284.531 150.864 291.245 139.411 291.245 139.411L284.136 130.722Z" fill="#FBAC35"/>
<path d="M278.41 200.823C278.41 200.823 278.607 202.995 279.002 203.193C279.397 203.39 282.359 208.327 279.002 209.314C275.645 210.301 273.67 209.906 272.88 210.301C272.091 210.696 258.268 211.486 258.071 209.314C257.873 207.142 264.784 206.747 264.784 206.747C264.784 206.747 271.103 202.6 272.091 200.428C273.078 198.256 278.41 200.823 278.41 200.823Z" fill="#2F2E41"/>
<path d="M318.496 204.772C318.496 204.772 323.235 212.868 322.05 213.856C320.865 214.843 309.327 218.441 307.635 218.595C305.463 218.792 303.883 217.015 305.66 216.028C307.438 215.04 311.189 210.894 311.189 209.511V205.957L318.496 204.772Z" fill="#2F2E41"/>
<path d="M323.037 151.851C323.037 151.851 327.184 156.985 320.668 165.279L309.807 179.102C309.807 179.102 316.521 189.765 316.718 195.294C316.916 200.823 318.298 199.638 318.693 202.008C319.088 204.377 320.865 203.193 319.483 204.97C318.101 206.747 312.967 208.327 311.387 206.944C310.843 206.447 310.419 205.834 310.146 205.15C309.872 204.467 309.756 203.73 309.807 202.995C309.807 202.205 307.043 197.664 306.845 196.281C306.648 194.899 299.341 183.643 299.341 183.643C299.341 183.643 296.972 176.93 299.736 173.178C302.501 169.426 304.328 164.105 304.328 164.105C304.328 164.105 296.182 173.968 290.455 176.337C290.455 176.337 288.283 176.732 288.678 177.719C289.073 178.707 288.678 179.299 288.086 180.286C287.493 181.274 283.347 192.727 281.964 195.689C280.582 198.651 281.175 200.428 279.595 201.415C278.015 202.403 270.906 201.613 270.906 200.626C270.906 199.638 271.894 197.071 272.486 195.689C273.078 194.307 277.818 178.312 277.423 175.547C277.028 172.783 277.62 169.031 280.582 167.451C283.544 165.871 298.552 153.036 299.341 153.036C300.131 153.036 323.037 151.851 323.037 151.851Z" fill="#2F2E41"/>
<path d="M283.346 120.849C287.927 120.849 291.64 117.136 291.64 112.556C291.64 107.975 287.927 104.262 283.346 104.262C278.766 104.262 275.053 107.975 275.053 112.556C275.053 117.136 278.766 120.849 283.346 120.849Z" fill="#FFB9B9"/>
<path d="M290.06 113.345C290.06 113.345 292.627 117.887 295.787 118.479C298.946 119.072 287.493 128.155 287.493 128.155C287.493 128.155 284.729 119.467 282.359 119.072C279.989 118.677 290.06 113.345 290.06 113.345Z" fill="#FFB9B9"/>
<path d="M281.965 131.907C281.965 134.474 289.666 141.781 289.666 141.781L296.972 147.902C296.972 147.902 297.17 150.074 297.96 150.272C298.749 150.469 299.737 150.469 298.947 151.654C298.157 152.839 296.182 155.406 297.96 155.801C298.495 155.882 299.035 155.934 299.577 155.955C300.051 155.982 300.608 156.008 301.234 156.032C302.695 156.083 304.523 156.117 306.504 156.103C307.067 156.101 307.639 156.094 308.222 156.083C315.688 155.935 324.337 155.076 323.63 152.246C322.445 147.507 323.235 145.927 320.668 143.36C318.101 140.793 313.954 131.907 313.954 131.907C313.954 131.907 305.661 117.887 298.749 117.887L297.314 117.51C296.647 117.334 295.941 117.373 295.297 117.62C294.654 117.868 294.104 118.311 293.726 118.888C292.34 120.999 290.154 124.171 288.876 125.193C286.901 126.773 286.593 125.64 286.593 125.64C286.593 125.64 281.965 129.34 281.965 131.907Z" fill="#FBAC35"/>
<path d="M299.538 161.922C299.538 161.922 293.812 170.808 297.366 172.388C300.921 173.967 302.895 163.107 302.895 163.107L299.538 161.922Z" fill="#A0616A"/>
<path d="M288.769 111.619C288.451 111.579 288.35 111.177 288.296 110.861C288.009 109.167 286.747 107.56 285.051 107.287C284.403 107.201 283.743 107.254 283.117 107.443C282.22 107.689 281.378 108.103 280.636 108.664C280.273 108.996 279.853 109.26 279.396 109.443C279.085 109.534 277.764 110.121 277.455 110.221C276.776 110.439 276.214 111.15 275.515 111.009C274.847 110.875 274.592 110.067 274.485 109.393C274.24 107.858 275.119 105.568 275.992 104.283C276.655 103.307 277.777 102.745 278.898 102.38C280.212 101.981 281.562 101.713 282.929 101.579C284.773 101.361 286.684 101.246 288.452 101.816C290.22 102.386 291.829 103.781 292.159 105.609C292.228 105.99 292.241 106.38 292.325 106.758C292.531 107.679 293.14 108.453 293.496 109.328C293.753 109.97 293.872 110.659 293.846 111.35C293.82 112.041 293.649 112.719 293.345 113.34C292.853 114.33 291.996 115.282 292.181 116.372L290.657 115.17C290.437 115.045 290.267 114.848 290.174 114.613C290.081 114.377 290.072 114.117 290.149 113.875L290.37 111.967C290.447 111.621 290.412 111.26 290.271 110.935C289.594 109.752 289.3 111.686 288.769 111.619Z" fill="#2F2E41"/>
<path opacity="0.1" d="M303.093 148.297L301.233 156.032C303.109 156.099 305.591 156.134 308.221 156.083C308.885 154.092 309.519 152.017 310.004 150.074C311.782 142.965 308.82 132.105 307.24 126.97C305.66 121.836 301.711 120.454 301.711 120.454C300.092 121.024 298.562 121.821 297.169 122.824C294.602 124.601 303.093 148.297 303.093 148.297Z" fill="black"/>
<path opacity="0.1" d="M301.513 147.902L299.576 155.955C300.05 155.982 300.607 156.008 301.233 156.032C302.694 156.083 304.523 156.117 306.503 156.103C307.216 153.988 307.905 151.756 308.425 149.679C310.202 142.57 307.24 131.71 305.66 126.576C304.081 121.441 300.625 127.069 300.625 127.069C300.625 127.069 302.007 123.712 299.44 125.489C296.873 127.267 301.513 147.902 301.513 147.902Z" fill="black"/>
<path d="M300.921 120.059C300.921 120.059 304.87 121.441 306.45 126.575C308.03 131.71 310.992 142.57 309.214 149.679C307.437 156.788 303.685 165.674 303.685 165.674C303.685 165.674 299.933 162.909 298.551 163.502L302.303 147.902C302.303 147.902 293.812 124.206 296.379 122.429C297.772 121.426 299.302 120.628 300.921 120.059Z" fill="#FBAC35"/>
<path d="M303.864 219.106L249.232 105.26L157.882 149.097L191.478 219.106H303.864Z" fill="#F2F2F2"/>
<path d="M230.745 149.948L182.226 173.231L183.671 176.243L232.19 152.959L230.745 149.948Z" fill="#3F3D56"/>
<path d="M243.59 176.717L195.071 200L196.516 203.012L245.036 179.728L243.59 176.717Z" fill="#3F3D56"/>
<path d="M252.414 134.197L240.368 139.978L246.149 152.024L258.195 146.243L252.414 134.197Z" fill="#3F3D56"/>
<path d="M265.261 160.966L253.215 166.747L258.996 178.793L271.042 173.012L265.261 160.966Z" fill="#3F3D56"/>
<path d="M253.244 125.853L248.284 139.968L241.596 137.618L240.681 140.221L249.963 143.484L255.848 126.768L253.244 125.853Z" fill="#57B894"/>
<path d="M266.091 152.622L261.13 166.737L254.442 164.387L253.527 166.99L262.81 170.252L268.695 153.537L266.091 152.622Z" fill="#57B894"/>
<path d="M31.2725 350.136L55.9551 344.864L50.6827 320.181L26.0001 325.454L31.2725 350.136Z" fill="#F2F2F2"/>
<path d="M55.2681 313.586C55.2681 313.586 46.2022 320.062 49.2242 322.652C52.2461 325.243 58.2901 314.882 58.2901 314.882L55.2681 313.586Z" fill="#FFB9B9"/>
<path d="M97.1442 323.516C97.1442 323.516 95.4174 345.101 94.9857 348.123C94.554 351.145 94.1222 378.343 93.2588 381.365C92.3954 384.387 91.532 391.726 91.532 391.726H86.3514C86.3514 391.726 86.7831 378.343 85.488 373.163C84.1928 367.982 84.6246 353.736 84.6246 353.736C84.6246 353.736 82.0343 328.265 83.3294 324.811C84.6246 321.357 97.1442 323.516 97.1442 323.516Z" fill="#FFB9B9"/>
<path d="M90.2372 390.431C90.2372 390.431 92.3958 391.726 92.3958 392.589C92.3958 393.453 91.9641 395.611 92.3958 396.475C92.8275 397.338 95.8495 400.792 94.1227 401.655C92.3958 402.519 84.625 401.655 84.625 401.655C84.625 401.655 85.0567 395.611 85.4884 395.18C85.9201 394.748 85.0567 390.431 85.0567 390.431H90.2372Z" fill="#2F2E41"/>
<path d="M64.1427 322.987C64.1427 322.987 63.5942 344.634 63.7064 347.685C63.8185 350.736 61.393 377.829 61.9344 380.924C62.4758 384.02 62.5641 391.41 62.5641 391.41L67.7161 391.953C67.7161 391.953 68.6915 378.599 70.5233 373.583C72.355 368.567 73.4211 354.354 73.4211 354.354C73.4211 354.354 78.6707 329.295 77.7452 325.725C76.8197 322.154 64.1427 322.987 64.1427 322.987Z" fill="#FFB9B9"/>
<path d="M63.9881 390.258C63.9881 390.258 61.7055 391.319 61.6149 392.178C61.5243 393.037 61.727 395.228 61.2071 396.042C60.6871 396.855 57.3193 399.973 58.946 401.012C60.5727 402.052 68.3912 402.009 68.3912 402.009C68.3912 402.009 68.5962 395.953 68.2122 395.479C67.8283 395.004 69.14 390.802 69.14 390.802L63.9881 390.258Z" fill="#2F2E41"/>
<path d="M91.1008 291.137C91.1008 291.137 94.5545 291.569 95.8497 298.908C97.1448 306.247 101.894 324.811 98.0082 326.106C94.1228 327.401 82.4666 329.992 82.0349 329.128C81.6032 328.265 80.7397 326.106 80.7397 326.106C80.7397 326.106 82.0349 329.992 80.308 329.992C78.5812 329.992 61.7444 327.401 62.1761 326.106C62.6078 324.811 63.4712 315.313 63.4712 315.313C63.4712 315.313 66.0615 299.34 68.6518 296.75C69.4014 296.03 69.9834 295.154 70.3565 294.184C70.7296 293.214 70.8845 292.174 70.8104 291.137H91.1008Z" fill="#2F2E41"/>
<path d="M97.5766 287.684C97.5766 287.684 91.9644 286.389 91.101 288.115C90.2375 289.842 93.2595 292.433 94.5546 292.433C95.8498 292.433 98.0084 291.137 98.0084 291.137L97.5766 287.684Z" fill="#FFB9B9"/>
<path d="M85.9202 250.988C90.2119 250.988 93.691 247.509 93.691 243.218C93.691 238.926 90.2119 235.447 85.9202 235.447C81.6285 235.447 78.1494 238.926 78.1494 243.218C78.1494 247.509 81.6285 250.988 85.9202 250.988Z" fill="#FFB9B9"/>
<path d="M84.6254 248.83C84.6254 248.83 83.3303 254.874 84.1937 254.874C85.0571 254.874 77.718 258.759 77.718 258.759L72.1058 257.895L70.3789 255.305C70.3789 255.305 79.4449 249.261 79.4449 245.808C79.4449 242.354 84.6254 248.83 84.6254 248.83Z" fill="#FFB9B9"/>
<path d="M80.7395 254.874C80.7395 254.874 82.0347 254.01 82.4664 254.01H85.9201C86.3518 254.01 91.9641 255.306 91.9641 255.306L95.4178 274.733C95.4178 274.733 89.3738 284.662 93.6909 292.433C93.6909 292.433 92.3958 291.569 86.3518 292.001C80.3078 292.433 69.515 293.728 69.0833 293.728C68.6516 293.728 68.6516 290.274 69.0833 289.411C69.515 288.547 68.6516 288.979 68.6516 286.821C68.6516 284.662 67.3565 280.777 67.3565 280.777L61.3125 258.759C61.3125 258.759 69.0833 254.442 70.3785 254.874C71.6736 255.306 75.559 256.601 76.4224 256.169C77.2858 255.737 80.7395 254.874 80.7395 254.874Z" fill="#2596FF"/>
<path d="M90.6689 255.737L91.9641 255.306C91.9641 255.306 94.5543 254.874 97.5763 257.464C100.598 260.054 111.823 267.825 111.823 267.825C111.823 267.825 116.14 271.279 114.845 275.164C113.55 279.05 111.391 288.547 104.915 288.116C104.915 288.116 101.03 293.296 98.8715 292.433C96.7129 291.569 94.9861 288.116 96.2812 287.684C97.5763 287.252 101.03 282.935 101.03 282.935L96.7129 274.733H95.4178L90.669 272.142L90.6689 255.737Z" fill="#2596FF"/>
<path d="M64.7663 258.328L61.3126 258.759C61.3126 258.759 58.2907 260.054 58.7224 265.667C59.1541 271.279 56.1321 296.75 57.4272 299.772C57.4272 299.772 53.1101 314.45 53.9735 314.882C54.837 315.314 60.0175 317.904 59.5858 316.177C59.1541 314.45 64.3346 302.362 64.3346 302.362C64.3346 302.362 70.3786 295.887 67.7883 286.821V279.482L64.7663 258.328Z" fill="#2596FF"/>
<path d="M92.3874 250.73L86.8992 251.926L86.1939 249.224L86.4651 252.021L77.6114 253.949L77.2221 252.458L77.3718 254.002L71.7011 255.237L70.488 243.592C69.2409 238.814 73.7925 233.721 78.5709 232.474L80.6907 231.921C84.2002 231.005 90.5797 231.837 91.4956 235.347C89.8924 241.466 87.1594 248.174 92.3874 250.73Z" fill="#2F2E41"/>
</g>
<defs>
<clipPath id="clip0">
<rect width="400" height="300.639" fill="white" transform="translate(26 101.4)"/>
</clipPath>
</defs>
</svg>
