<svg width="64" height="64" viewBox="0 0 64 64" fill="none" xmlns="http://www.w3.org/2000/svg">
<path d="M32 6V16" stroke="#000A8F" stroke-width="4" stroke-linecap="round"/>
<path d="M36 10L28 10" stroke="#000A8F" stroke-width="4" stroke-linecap="round"/>
<path d="M26 58H15V32L32 17L49 32V58H38V46C38 38 26 38 26 46V58Z" stroke="#000A8F" stroke-width="4" stroke-linejoin="round"/>
<path d="M26 48L27 42.5L32 40L37 42.5L38 48V60H26V48Z" fill="#000A8F"/>
<path d="M59.5 58V60C60.6046 60 61.5 59.1046 61.5 58H59.5ZM59.5 47H61.5C61.5 46.4696 61.2893 45.9609 60.9142 45.5858L59.5 47ZM49 60H59.5V56H49V60ZM61.5 58V47H57.5V58H61.5ZM60.9142 45.5858L50.4142 35.0858L47.5858 37.9142L58.0858 48.4142L60.9142 45.5858Z" fill="#000A8F"/>
<path d="M5 58V60C3.89543 60 3 59.1046 3 58H5ZM5 47H3C3 46.4696 3.21071 45.9609 3.58579 45.5858L5 47ZM15.5 60H5V56H15.5V60ZM3 58V47H7V58H3ZM3.58579 45.5858L14.0858 35.0858L16.9142 37.9142L6.41421 48.4142L3.58579 45.5858Z" fill="#000A8F"/>
</svg>
