<svg width="64" height="64" viewBox="0 0 64 64" fill="none" xmlns="http://www.w3.org/2000/svg">
<path fill-rule="evenodd" clip-rule="evenodd" d="M8 54V28H12V54C12 54.5304 12.2107 55.0391 12.5858 55.4142C12.9609 55.7893 13.4696 56 14 56H50C50.5304 56 51.0391 55.7893 51.4142 55.4142C51.7893 55.0391 52 54.5304 52 54V28H56V54C56 55.5913 55.3679 57.1174 54.2426 58.2426C53.1174 59.3679 51.5913 60 50 60H14C12.4087 60 10.8826 59.3679 9.75736 58.2426C8.63214 57.1174 8 55.5913 8 54ZM52 10V24L44 16V10C44 9.46957 44.2107 8.96086 44.5858 8.58579C44.9609 8.21071 45.4696 8 46 8H50C50.5304 8 51.0391 8.21071 51.4142 8.58579C51.7893 8.96086 52 9.46957 52 10Z" fill="#000A8F"/>
<path fill-rule="evenodd" clip-rule="evenodd" d="M29.1709 6.00025C29.921 5.25036 30.9382 4.8291 31.9989 4.8291C33.0595 4.8291 34.0768 5.25036 34.8269 6.00025L61.4149 32.5842C61.7904 32.9598 62.0014 33.4691 62.0014 34.0002C62.0014 34.5314 61.7904 35.0407 61.4149 35.4162C61.0393 35.7918 60.53 36.0028 59.9989 36.0028C59.4678 36.0028 58.9584 35.7918 58.5829 35.4162L31.9989 8.82825L5.41486 35.4162C5.03932 35.7918 4.52997 36.0028 3.99886 36.0028C3.46776 36.0028 2.95841 35.7918 2.58286 35.4162C2.20732 35.0407 1.99634 34.5314 1.99634 34.0002C1.99634 33.4691 2.20732 32.9598 2.58286 32.5842L29.1709 6.00025Z" fill="#000A8F"/>
</svg>
